<svg width="300" height="300" viewBox="0 0 300 300" xmlns="http://www.w3.org/2000/svg">
  <defs>
    <linearGradient id="packGradient" x1="0%" y1="0%" x2="100%" y2="100%">
      <stop offset="0%" style="stop-color:#fbbf24;stop-opacity:1" />
      <stop offset="50%" style="stop-color:#f59e0b;stop-opacity:1" />
      <stop offset="100%" style="stop-color:#d97706;stop-opacity:1" />
    </linearGradient>
    <linearGradient id="sealGradient" x1="0%" y1="0%" x2="100%" y2="100%">
      <stop offset="0%" style="stop-color:#dc2626;stop-opacity:1" />
      <stop offset="100%" style="stop-color:#991b1b;stop-opacity:1" />
    </linearGradient>
    <filter id="glow">
      <feGaussianBlur stdDeviation="3" result="coloredBlur"/>
      <feMerge> 
        <feMergeNode in="coloredBlur"/>
        <feMergeNode in="SourceGraphic"/>
      </feMerge>
    </filter>
  </defs>
  
  <!-- Pack body -->
  <rect x="50" y="80" width="200" height="180" rx="20" ry="20" fill="url(#packGradient)" stroke="#92400e" stroke-width="3"/>
  
  <!-- Pack top flap -->
  <path d="M 50 80 L 70 50 L 230 50 L 250 80 Z" fill="#f59e0b" stroke="#92400e" stroke-width="2"/>
  
  <!-- Mystical seal -->
  <circle cx="150" cy="170" r="40" fill="url(#sealGradient)" filter="url(#glow)"/>
  
  <!-- Hunga symbol in seal -->
  <g transform="translate(150,170)">
    <!-- Ape face outline -->
    <circle cx="0" cy="-5" r="25" fill="none" stroke="#fbbf24" stroke-width="3"/>
    <!-- Eyes -->
    <circle cx="-8" cy="-10" r="3" fill="#fbbf24"/>
    <circle cx="8" cy="-10" r="3" fill="#fbbf24"/>
    <!-- Nose -->
    <ellipse cx="0" cy="-2" rx="2" ry="4" fill="#fbbf24"/>
    <!-- Mouth -->
    <path d="M -6 5 Q 0 10 6 5" stroke="#fbbf24" stroke-width="2" fill="none"/>
  </g>
  
  <!-- Mystical runes around seal -->
  <g stroke="#fbbf24" stroke-width="2" fill="none" opacity="0.8">
    <circle cx="110" cy="130" r="5"/>
    <circle cx="190" cy="130" r="5"/>
    <circle cx="110" cy="210" r="5"/>
    <circle cx="190" cy="210" r="5"/>
    
    <!-- Connecting lines -->
    <line x1="115" y1="135" x2="130" y2="150"/>
    <line x1="185" y1="135" x2="170" y2="150"/>
    <line x1="115" y1="205" x2="130" y2="190"/>
    <line x1="185" y1="205" x2="170" y2="190"/>
  </g>
  
  <!-- Pack corners decoration -->
  <g fill="#d97706">
    <polygon points="50,80 60,70 60,90"/>
    <polygon points="250,80 240,70 240,90"/>
    <polygon points="50,260 60,250 60,270"/>
    <polygon points="250,260 240,250 240,270"/>
  </g>
  
  <!-- Sparkle effects -->
  <g fill="#fbbf24" opacity="0.9">
    <polygon points="80,60 82,65 87,65 83,69 85,74 80,71 75,74 77,69 73,65 78,65">
      <animateTransform attributeName="transform" type="rotate" values="0 80 60;360 80 60" dur="4s" repeatCount="indefinite"/>
    </polygon>
    <polygon points="220,40 222,45 227,45 223,49 225,54 220,51 215,54 217,49 213,45 218,45">
      <animateTransform attributeName="transform" type="rotate" values="0 220 40;360 220 40" dur="3s" repeatCount="indefinite"/>
    </polygon>
    <polygon points="270,200 272,205 277,205 273,209 275,214 270,211 265,214 267,209 263,205 268,205">
      <animateTransform attributeName="transform" type="rotate" values="0 270 200;360 270 200" dur="5s" repeatCount="indefinite"/>
    </polygon>
  </g>
  
  <!-- Glow animation on seal -->
  <circle cx="150" cy="170" r="40" fill="none" stroke="#fbbf24" stroke-width="2" opacity="0.5">
    <animate attributeName="opacity" values="0.3;0.8;0.3" dur="2s" repeatCount="indefinite"/>
  </circle>
</svg>
